<?xml version="1.0" encoding="UTF-8" standalone="no"?>
<svg
   xmlns:dc="http://purl.org/dc/elements/1.1/"
   xmlns:cc="http://creativecommons.org/ns#"
   xmlns:rdf="http://www.w3.org/1999/02/22-rdf-syntax-ns#"
   xmlns:svg="http://www.w3.org/2000/svg"
   xmlns="http://www.w3.org/2000/svg"
   version="1.1"
   id="svg3576"
   viewBox="0 0 85 54"
   height="54mm"
   width="85mm">
  <defs
     id="defs3" />
  <metadata
     id="metadata3580">
    <rdf:RDF>
      <cc:Work
         rdf:about="">
        <dc:format>image/svg+xml</dc:format>
        <dc:type
           rdf:resource="http://purl.org/dc/dcmitype/StillImage" />
        <dc:title></dc:title>
      </cc:Work>
    </rdf:RDF>
  </metadata>
  <g
     id="layer1">
    <g
       id="flowRoot3583"
       style="font-style:italic;font-variant:normal;font-weight:bold;font-stretch:normal;font-size:11.28888893px;line-height:125%;font-family:STIXGeneral;-inkscape-font-specification:'STIXGeneral, Bold Italic';text-align:start;letter-spacing:0px;word-spacing:0px;writing-mode:lr-tb;text-anchor:start;fill:#d40000;fill-opacity:1;stroke:none;stroke-width:1px;stroke-linecap:butt;stroke-linejoin:miter;stroke-opacity:1"
       transform="matrix(1.6004725,0,0,1.6004725,-8.0242943,-0.93559471)">
      <path
         id="path4562"
         style=""
         d="M 11.012498,13.521791 10.88832,12.641258 C 10.68512,11.230147 10.346453,10.07868 10.143253,9.5481024 9.6013865,9.6835691 9.1836976,9.7513024 8.4499198,9.8190358 l 0,0.3048002 c 0.2822222,0 0.3273778,0.01129 0.4515555,0.135466 0.1806223,0.180623 0.3048001,0.6096 0.4515556,1.275645 0.3838222,1.8288 0.5644445,2.901244 0.5644445,3.2512 0,0.259644 -0.090311,0.530578 -0.2822223,0.801511 -0.2370666,0.338667 -0.5644444,0.587022 -0.7563555,0.587022 -0.4064,0 -0.5305778,-0.4064 -1.0611556,-0.4064 -0.2935111,0 -0.5644444,0.3048 -0.5644444,0.632178 0,0.383822 0.3048,0.677333 0.6999111,0.677333 0.6208889,0 1.3546667,-0.440266 1.9755555,-1.196622 1.4675558,-1.794933 2.8109338,-4.4704 2.8109338,-5.610578 0,-0.3838219 -0.327378,-0.7224886 -0.699912,-0.7224886 -0.417688,0 -0.654755,0.3612445 -0.654755,0.6434666 0,0.282222 0.1016,0.4064 0.349955,0.6096 0.2032,0.169333 0.282223,0.237067 0.282223,0.383822 0,0.349956 -0.191911,0.824089 -0.982134,2.3368 l -0.02258,0 z" />
      <path
         id="path4564"
         style=""
         d="m 16.414231,9.5481024 c -0.767644,0 -1.490133,0.3048 -2.065867,0.8692446 -0.677333,0.666044 -1.128889,1.693333 -1.128889,2.822222 0,1.106311 0.790223,1.670756 1.851378,1.670756 0.756356,0 1.4224,-0.293511 1.975556,-0.846667 0.688622,-0.688622 1.185333,-1.749778 1.185333,-2.810933 0,-1.038578 -0.677333,-1.7046226 -1.772355,-1.7046226 l -0.04516,0 z m 0.474133,1.0159996 c 0,0.982134 -0.417689,2.562578 -0.970844,3.465689 -0.237067,0.383823 -0.508,0.553156 -0.801511,0.553156 -0.338667,0 -0.553156,-0.225778 -0.553156,-0.722489 0,-1.151467 0.440267,-2.878667 1.1176,-3.635022 0.214489,-0.2370669 0.440267,-0.3499558 0.677334,-0.3499558 0.327377,0 0.530577,0.2596448 0.530577,0.6886218 z" />
      <path
         id="path4566"
         style=""
         d="m 24.214854,13.262147 c -0.395111,0.6096 -0.620889,0.835378 -0.8128,0.835378 -0.124178,0 -0.158045,-0.124178 -0.158045,-0.237067 0,-0.135467 0.135467,-0.643467 0.282223,-1.162756 l 0.880533,-3.002844 -1.332089,0 c -0.6096,2.257778 -0.948267,2.878667 -1.603022,3.736622 -0.338667,0.440267 -0.587022,0.620889 -0.790222,0.620889 -0.158045,0 -0.270934,-0.09031 -0.270934,-0.282222 0,-0.169333 0.02258,-0.3048 0.180622,-0.8128 l 1.049867,-3.4092446 c -0.688622,0.1467556 -1.794933,0.3048 -2.370667,0.3160889 l 0,0.3047997 c 0.519289,0.03387 0.654756,0.146756 0.654756,0.316089 0,0.180622 -0.1016,0.519289 -0.191911,0.846667 l -0.417689,1.444978 c -0.158044,0.564444 -0.248356,0.9144 -0.248356,1.196622 0,0.598311 0.316089,0.891822 0.880534,0.891822 0.733778,0 1.174044,-0.361244 2.2352,-1.919111 l 0.01129,0 c -0.2032,0.620889 -0.293511,0.9144 -0.293511,1.241778 0,0.462844 0.270933,0.677333 0.767644,0.677333 0.677333,0 1.207911,-0.451555 1.794933,-1.456267 l -0.248355,-0.146755 z" />
    </g>
    <g
       id="flowRoot3591"
       style="font-style:normal;font-variant:normal;font-weight:bold;font-stretch:normal;font-size:11.28888893px;line-height:125%;font-family:'Ubuntu Mono';-inkscape-font-specification:'Ubuntu Mono, Bold';text-align:start;letter-spacing:0px;word-spacing:0px;writing-mode:lr-tb;text-anchor:start;fill:#150069;fill-opacity:0.93134323;stroke:none;stroke-width:1px;stroke-linecap:butt;stroke-linejoin:miter;stroke-opacity:1"
       transform="matrix(1.6004725,0,0,1.6004725,-8.0242943,-0.93559471)">
      <path
         id="path4551"
         style=""
         d="m 17.105725,22.307925 q -0.124177,-0.349955 -0.237066,-0.643466 -0.1016,-0.293511 -0.2032,-0.564445 -0.09031,-0.282222 -0.191911,-0.575733 -0.09031,-0.3048 -0.191912,-0.666045 -0.112888,0.361245 -0.2032,0.654756 -0.09031,0.282222 -0.191911,0.564444 -0.09031,0.282223 -0.191911,0.575734 -0.1016,0.293511 -0.248355,0.654755 l -1.049867,0 q -0.135467,-0.496711 -0.259644,-1.095022 -0.112889,-0.6096 -0.214489,-1.286933 -0.1016,-0.688622 -0.180623,-1.4224 -0.07902,-0.733778 -0.146755,-1.501422 l 1.185333,0 q 0.04516,0.982133 0.09031,1.919111 0.05645,0.936977 0.191911,1.9304 0.146756,-0.428978 0.248356,-0.790223 0.112889,-0.372533 0.191911,-0.699911 0.09031,-0.338666 0.158045,-0.643466 0.07902,-0.316089 0.158044,-0.643467 l 1.004711,0 q 0.06773,0.327378 0.135467,0.643467 0.07902,0.3048 0.158044,0.643466 0.09031,0.327378 0.180622,0.699911 0.1016,0.361245 0.237067,0.790223 0.06773,-0.519289 0.112889,-0.993423 0.04516,-0.474133 0.06773,-0.936977 0.03387,-0.474134 0.04516,-0.936978 0.02258,-0.474133 0.04516,-0.982133 l 1.185334,0 q -0.124178,1.546577 -0.349956,2.912533 -0.214489,1.365955 -0.485422,2.393244 l -1.049867,0 z" />
      <path
         id="path4553"
         style=""
         d="m 21.948659,21.314503 q 0.225777,0 0.440266,0 0.214489,-0.01129 0.372534,-0.03387 l 0,-1.2192 q -0.135467,-0.02258 -0.327378,-0.03387 -0.191911,-0.02258 -0.349956,-0.02258 -0.214489,0 -0.417689,0.03387 -0.2032,0.02258 -0.361244,0.09031 -0.146756,0.06773 -0.237067,0.191911 -0.09031,0.124178 -0.09031,0.327378 0,0.361244 0.270934,0.519289 0.270933,0.146755 0.699911,0.146755 z m -0.124178,-4.447822 q 0.654755,0 1.083733,0.158044 0.440267,0.146756 0.699911,0.428978 0.259645,0.270933 0.372534,0.677333 0.112889,0.395112 0.112889,0.891823 l 0,3.160889 q -0.3048,0.06773 -0.903112,0.158044 -0.598311,0.09031 -1.343377,0.09031 -0.508,0 -0.925689,-0.09031 -0.4064,-0.09031 -0.699911,-0.293511 -0.293511,-0.214489 -0.451556,-0.541867 -0.158044,-0.338666 -0.158044,-0.824089 0,-0.462844 0.180622,-0.778933 0.180622,-0.316089 0.485422,-0.508 0.3048,-0.191911 0.699911,-0.270933 0.395111,-0.09031 0.824089,-0.09031 0.541867,0 0.959556,0.09031 l 0,-0.169334 q 0,-0.395111 -0.248356,-0.654755 -0.248355,-0.270934 -0.857955,-0.270934 -0.395112,0 -0.767645,0.05645 -0.361244,0.05644 -0.587022,0.135467 l -0.191911,-1.1176 q 0.259644,-0.09031 0.733778,-0.158045 0.474133,-0.07902 0.982133,-0.07902 z" />
      <path
         id="path4555"
         style=""
         d="m 26.373903,18.153614 -1.207911,0 0,-1.151466 1.207911,0 0,-1.332089 1.388534,-0.225778 0,1.557867 2.223911,0 0,1.151466 -2.223911,0 0,2.144889 q 0,0.293511 0.05644,0.474133 0.05644,0.180623 0.158044,0.282223 0.1016,0.1016 0.248356,0.135466 0.146756,0.03387 0.327378,0.03387 0.191911,0 0.349955,-0.01129 0.169334,-0.01129 0.316089,-0.03387 0.158045,-0.03387 0.316089,-0.09031 0.169333,-0.05644 0.361245,-0.146755 l 0.191911,1.196622 q -0.383823,0.158045 -0.835378,0.225778 -0.440267,0.06773 -0.857956,0.06773 -0.485422,0 -0.857955,-0.07902 -0.372534,-0.07902 -0.632178,-0.3048 -0.259644,-0.225778 -0.395111,-0.632178 -0.135467,-0.417689 -0.135467,-1.083733 l 0,-2.178756 z" />
      <path
         id="path4557"
         style=""
         d="m 30.900749,19.655036 q 0,-0.575733 0.180622,-1.083733 0.180622,-0.508 0.553155,-0.880533 0.372534,-0.383822 0.936978,-0.598311 0.575733,-0.225778 1.365956,-0.225778 0.474133,0 0.857955,0.06773 0.383822,0.06773 0.778934,0.225778 l -0.3048,1.1176 q -0.225778,-0.07902 -0.508,-0.135467 -0.270934,-0.06773 -0.699912,-0.06773 -0.496711,0 -0.835377,0.124178 -0.327378,0.112889 -0.530578,0.327378 -0.2032,0.2032 -0.293511,0.496711 -0.09031,0.293511 -0.09031,0.632177 0,0.733778 0.4064,1.151467 0.417689,0.417689 1.411111,0.417689 0.327378,0 0.677333,-0.04516 0.361245,-0.04516 0.654756,-0.146755 l 0.2032,1.140178 q -0.293511,0.112889 -0.7112,0.180622 -0.417689,0.07902 -0.982134,0.07902 -0.8128,0 -1.399822,-0.214489 -0.575733,-0.214489 -0.948267,-0.587022 -0.372533,-0.372533 -0.553155,-0.880533 -0.169333,-0.508 -0.169333,-1.095023 z" />
      <path
         id="path4559"
         style=""
         d="m 36.759681,22.307925 0,-7.597422 1.388533,-0.237067 0,2.573867 q 0.169334,-0.05644 0.4064,-0.1016 0.237067,-0.05644 0.417689,-0.05644 0.587022,0 0.982134,0.180622 0.395111,0.169333 0.632177,0.496711 0.237067,0.316089 0.338667,0.767644 0.1016,0.440267 0.1016,0.982134 l 0,2.991555 -1.388533,0 0,-2.810933 q 0,-0.745067 -0.169334,-1.072444 -0.169333,-0.327378 -0.643466,-0.327378 -0.191911,0 -0.383823,0.04516 -0.180622,0.04516 -0.293511,0.07902 l 0,4.086577 -1.388533,0 z" />
    </g>
    <g
       id="flowRoot3599"
       style="font-style:italic;font-variant:normal;font-weight:normal;font-stretch:normal;font-size:40.00027847px;line-height:125%;font-family:'DejaVu Serif';-inkscape-font-specification:'DejaVu Serif, Italic';text-align:start;letter-spacing:0px;word-spacing:0px;writing-mode:lr-tb;text-anchor:start;fill:#d40000;fill-opacity:1;stroke:none;stroke-width:1px;stroke-linecap:butt;stroke-linejoin:miter;stroke-opacity:1"
       transform="matrix(0.71717129,0,0,0.69123261,-53.703422,-21.363413)">
      <path
         id="path4546"
         style=""
         d="m 164.22856,56.393492 q 0.17578,-0.898444 0.95704,-1.562511 0.78125,-0.664067 1.69923,-0.664067 0.89844,0 1.42579,0.664067 0.41016,0.507816 0.41016,1.132821 0,0.214845 -0.0586,0.42969 -0.17578,0.917975 -0.95703,1.562511 -0.76173,0.644536 -1.6797,0.644536 -0.91798,0 -1.44533,-0.644536 -0.39062,-0.488285 -0.39062,-1.113289 0,-0.214845 0.0391,-0.449222 z m -0.29297,25.136894 3.39846,0 -0.39063,2.070327 -6.99223,0 3.6133,-18.672005 -3.43752,0 0.41016,-2.089859 7.0313,0 -3.63284,18.691537 z" />
      <path
         id="path4548"
         style=""
         d="m 176.08411,64.928708 -3.16408,0 0.41016,-2.089859 3.16408,0 1.25001,-6.445357 3.61331,0 -1.25001,6.445357 6.75786,0 -0.41016,2.089859 -6.75786,0 -2.55861,13.183685 q -0.29297,1.54298 -0.29297,2.441424 0,0.625004 0.13672,0.937506 0.37109,0.742193 1.73829,0.742193 1.40626,0 2.20704,-0.820318 0.82032,-0.83985 1.21095,-2.695332 l 2.71486,0 q -0.70313,2.832051 -2.34376,4.140654 -1.64064,1.308603 -4.47269,1.308603 -3.10549,0 -4.14065,-1.386728 -0.62501,-0.83985 -0.62501,-2.402361 0,-0.996101 0.25391,-2.265641 l 2.55861,-13.183685 z" />
    </g>
    <path
       id="path3632"
       d="m 66.589194,16.776341 -0.92831,-0.0061 0.0067,1.674688 -0.92158,0"
       style="opacity:0.96600001;fill:none;fill-opacity:1;fill-rule:evenodd;stroke:#bc0000;stroke-width:0.24667405px;stroke-linecap:butt;stroke-linejoin:miter;stroke-opacity:1" />
    <path
       id="path3632-5"
       d="m 66.456004,18.562134 -1.27e-4,-0.965818 -1.578315,0.02109 -0.0059,-0.958771"
       style="fill:none;fill-rule:evenodd;stroke:#bc0000;stroke-width:0.24426526px;stroke-linecap:butt;stroke-linejoin:miter;stroke-opacity:1" />
  </g>
</svg>
